<svg xmlns="http://www.w3.org/2000/svg" xmlns:xlink="http://www.w3.org/1999/xlink" width="182.046" height="52.475" viewBox="0 0 182.046 52.475">
  <defs>
    <linearGradient id="linear-gradient" x1="0.003" y1="0.593" x2="0.997" y2="0.369" gradientUnits="objectBoundingBox">
      <stop offset="0" stop-color="#09f"/>
      <stop offset="1" stop-color="aqua"/>
    </linearGradient>
    <linearGradient id="linear-gradient-2" x1="-0.039" y1="0.697" x2="0.854" y2="0.371" gradientUnits="objectBoundingBox">
      <stop offset="0.009" stop-color="#09f"/>
      <stop offset="0.042" stop-color="#00a9ff"/>
      <stop offset="0.111" stop-color="#00c3ff"/>
      <stop offset="0.19" stop-color="#00d9ff"/>
      <stop offset="0.282" stop-color="#00eaff"/>
      <stop offset="0.396" stop-color="#00f6ff"/>
      <stop offset="0.556" stop-color="#00fdff"/>
      <stop offset="1" stop-color="aqua"/>
    </linearGradient>
  </defs>
  <g id="Group_1202" data-name="Group 1202" transform="translate(-282.812 -341.783)">
    <g id="Group_16" data-name="Group 16" transform="translate(282.812 341.783)">
      <g id="Group_14" data-name="Group 14" transform="translate(0.025)">
        <g id="Group_9" data-name="Group 9" transform="translate(71.713 11.398)">
          <g id="Group_7" data-name="Group 7" transform="translate(0.175)">
            <path id="Path_20" data-name="Path 20" d="M413.892,380.078H406.31l-.639,1.466a.49.49,0,0,1-.449.294h-4.843a.49.49,0,0,1-.447-.69l9.16-20.518a.489.489,0,0,1,.447-.291h1.124a.49.49,0,0,1,.447.291l9.16,20.518a.49.49,0,0,1-.447.69H414.98a.488.488,0,0,1-.448-.294Zm-3.775-9.309-1.856,4.895h3.679Z" transform="translate(-399.889 -360.339)" fill="#fff"/>
            <path id="Path_21" data-name="Path 21" d="M455.827,361.213v20.518a.49.49,0,0,1-.49.49h-1.072a.491.491,0,0,1-.341-.138l-11.31-10.963v10.227a.49.49,0,0,1-.49.49H437.6a.49.49,0,0,1-.49-.49V360.829a.49.49,0,0,1,.49-.49h1.074a.488.488,0,0,1,.338.136l11.311,10.806V361.213a.49.49,0,0,1,.49-.49h4.523A.49.49,0,0,1,455.827,361.213Z" transform="translate(-414.248 -360.339)" fill="#fff"/>
            <path id="Path_22" data-name="Path 22" d="M490.065,363.828a9.646,9.646,0,0,1,3.263,7.63,9.844,9.844,0,0,1-3.279,7.661,11.832,11.832,0,0,1-8.238,2.959h-6.868a.49.49,0,0,1-.49-.49V361.455a.49.49,0,0,1,.49-.49h6.868A12.054,12.054,0,0,1,490.065,363.828Zm-10.109,2.127V377.12h1.824a6.066,6.066,0,0,0,4.255-1.52,5.332,5.332,0,0,0,1.663-4.142,5.089,5.089,0,0,0-1.647-4.1,6.344,6.344,0,0,0-4.271-1.408Z" transform="translate(-428.652 -360.58)" fill="#fff"/>
            <path id="Path_23" data-name="Path 23" d="M523.669,381.886l-7.883-10.332v10.035a.49.49,0,0,1-.49.49h-4.523a.49.49,0,0,1-.49-.49V361.455a.49.49,0,0,1,.49-.49H515.3a.49.49,0,0,1,.49.49v9.075l6.827-9.364a.489.489,0,0,1,.4-.2H528.2a.489.489,0,0,1,.4.776l-6.7,9.268,7.846,10.282a.49.49,0,0,1-.389.787h-5.294A.489.489,0,0,1,523.669,381.886Z" transform="translate(-442.475 -360.58)" fill="#fff"/>
            <path id="Path_24" data-name="Path 24" d="M561.556,363.491a10.783,10.783,0,0,1,0,15.58,11.93,11.93,0,0,1-16.156,0,10.856,10.856,0,0,1,0-15.58,11.928,11.928,0,0,1,16.156,0Zm-12.221,3.535a6.48,6.48,0,0,0,0,8.526,6.12,6.12,0,0,0,8.286,0,6.385,6.385,0,0,0,0-8.526,6.076,6.076,0,0,0-8.286,0Z" transform="translate(-454.75 -360.339)" fill="#fff"/>
          </g>
          <g id="Group_8" data-name="Group 8" transform="translate(0 26.6)">
            <path id="Path_25" data-name="Path 25" d="M405.1,404.923a3.971,3.971,0,0,1,0,5.592,4.3,4.3,0,0,1-3.066,1.092h-2.109a.322.322,0,0,1-.322-.322v-7.109a.322.322,0,0,1,.322-.322h2.109A4.3,4.3,0,0,1,405.1,404.923Zm-4.252,5.569h1.174a2.941,2.941,0,0,0,2.15-.776,2.68,2.68,0,0,0,.8-2,2.618,2.618,0,0,0-.787-2,3.055,3.055,0,0,0-2.162-.74h-1.174Z" transform="translate(-399.604 -403.725)" fill="#0cf"/>
            <path id="Path_26" data-name="Path 26" d="M431.2,411.285v-7.109a.322.322,0,0,1,.322-.322h.6a.322.322,0,0,1,.322.322v7.109a.322.322,0,0,1-.322.322h-.6A.321.321,0,0,1,431.2,411.285Z" transform="translate(-411.793 -403.725)" fill="#0cf"/>
            <path id="Path_27" data-name="Path 27" d="M461.053,405.463l-.409.334a.323.323,0,0,1-.451-.044,2.844,2.844,0,0,0-4.127-.159,2.838,2.838,0,0,0-.776,2.044,2.891,2.891,0,0,0,.8,2.079,2.725,2.725,0,0,0,2.056.822,2.6,2.6,0,0,0,2.314-1.175v-.834H458.4a.322.322,0,0,1-.322-.322v-.46a.322.322,0,0,1,.322-.322h2.986a.322.322,0,0,1,.322.322v1.776a.329.329,0,0,1-.042.163,3.752,3.752,0,0,1-1.437,1.4,4.155,4.155,0,0,1-2.138.564,4.007,4.007,0,0,1-2.9-1.151,4.029,4.029,0,0,1,0-5.709,4.007,4.007,0,0,1,2.9-1.151,3.7,3.7,0,0,1,3.011,1.364A.324.324,0,0,1,461.053,405.463Z" transform="translate(-420.588 -403.644)" fill="#0cf"/>
            <path id="Path_28" data-name="Path 28" d="M487.394,411.285v-7.109a.322.322,0,0,1,.323-.322h.6a.322.322,0,0,1,.322.322v7.109a.321.321,0,0,1-.322.322h-.6A.322.322,0,0,1,487.394,411.285Z" transform="translate(-433.47 -403.725)" fill="#0cf"/>
            <path id="Path_29" data-name="Path 29" d="M513.53,404.97v6.315a.322.322,0,0,1-.323.322h-.6a.321.321,0,0,1-.322-.322V404.97H510a.322.322,0,0,1-.322-.322v-.472a.322.322,0,0,1,.322-.322h5.829a.322.322,0,0,1,.322.322v.472a.322.322,0,0,1-.322.322Z" transform="translate(-442.066 -403.725)" fill="#0cf"/>
            <path id="Path_30" data-name="Path 30" d="M539.854,410.234l-.469,1.1a.322.322,0,0,1-.3.2h-.624a.322.322,0,0,1-.3-.45l3.139-7.238a.322.322,0,0,1,.3-.193h0a.322.322,0,0,1,.3.193l3.139,7.238a.322.322,0,0,1-.3.45h-.636a.322.322,0,0,1-.3-.2l-.469-1.1Zm.458-1.069h2.572l-1.28-3.219Z" transform="translate(-453.047 -403.644)" fill="#0cf"/>
            <path id="Path_31" data-name="Path 31" d="M574.852,410.813v.472a.322.322,0,0,1-.322.322h-4.149a.322.322,0,0,1-.322-.322v-7.109a.322.322,0,0,1,.322-.322h.6a.322.322,0,0,1,.322.322v6.316h3.226A.322.322,0,0,1,574.852,410.813Z" transform="translate(-465.358 -403.725)" fill="#0cf"/>
          </g>
        </g>
        <g id="Group_13" data-name="Group 13">
          <g id="Group_12" data-name="Group 12">
            <g id="Group_10" data-name="Group 10" transform="translate(24.903)">
              <path id="Path_32" data-name="Path 32" d="M337.776,369.345,323.4,354.9l10.062-10.108a10.142,10.142,0,0,1,7.223-3.007h.012a10.209,10.209,0,0,1,7.218,17.427ZM326,354.9l11.783,11.838,8.83-8.829a8.366,8.366,0,0,0-5.915-14.282h-.01a8.312,8.312,0,0,0-5.92,2.464Z" transform="translate(-323.396 -341.783)" fill="#3cf"/>
            </g>
            <g id="Group_11" data-name="Group 11" transform="translate(0 30.932)">
              <path id="Path_33" data-name="Path 33" d="M293.006,413.684a10.134,10.134,0,0,1-10.116-11.007l.008-.1a10.122,10.122,0,0,1,.283-1.576l.039-.161a10.117,10.117,0,0,1,.521-1.44c.035-.079.072-.16.111-.241a10.153,10.153,0,0,1,.762-1.332c.031-.045.066-.092.1-.138l.039-.054a10.183,10.183,0,0,1,1.057-1.265,14.277,14.277,0,0,1,10.171-4.233H296a14.279,14.279,0,0,1,10.164,4.21l4.2,4.2-10.172,10.172A10.125,10.125,0,0,1,293.006,413.684Zm2.991-19.7h-.015a12.445,12.445,0,0,0-8.868,3.691,8.359,8.359,0,0,0-.864,1.037l-.114.155a8.283,8.283,0,0,0-.624,1.091c-.031.066-.06.13-.089.195a8.305,8.305,0,0,0-.427,1.176l-.03.13a8.262,8.262,0,0,0-.233,1.287l-.007.087a8.311,8.311,0,0,0,14.159,6.586l8.869-8.869-2.895-2.895A12.451,12.451,0,0,0,296,393.984Z" transform="translate(-282.853 -392.141)" fill="url(#linear-gradient)"/>
            </g>
          </g>
        </g>
      </g>
      <g id="Group_15" data-name="Group 15" transform="translate(0 0.076)">
        <path id="Path_34" data-name="Path 34" d="M325.189,394.234a10.6,10.6,0,0,1-7.5-3.11l-12.848-12.848a12.451,12.451,0,0,0-8.862-3.67h-.015A12.445,12.445,0,0,0,287.1,378.3a8.32,8.32,0,0,0-2.381,5.071l-.066.78-1.84-.079.061-31.223c0-3.644.93-6.091,3.109-8.18a10.407,10.407,0,0,1,14.5.374L332.288,377a10.156,10.156,0,0,1-.171,14.5A9.963,9.963,0,0,1,325.189,394.234Zm-29.207-21.471a14.279,14.279,0,0,1,10.164,4.21l12.848,12.848a8.52,8.52,0,0,0,11.848.343,8.313,8.313,0,0,0,.141-11.867L299.174,346.34A8.556,8.556,0,0,0,287.258,346c-1.805,1.73-2.542,3.716-2.542,6.852l-.05,25.5A10.139,10.139,0,0,1,285.793,377a14.277,14.277,0,0,1,10.171-4.233Z" transform="translate(-282.812 -341.907)" fill="url(#linear-gradient-2)"/>
      </g>
    </g>
  </g>
</svg>
